<?xml version="1.0" encoding="UTF-8"?>
<!DOCTYPE svg PUBLIC "-//W3C//DTD SVG 1.1//EN" "http://www.w3.org/Graphics/SVG/1.1/DTD/svg11.dtd">
<svg xmlns="http://www.w3.org/2000/svg" version="1.1" width="500px" height="500px" style="shape-rendering:geometricPrecision; text-rendering:geometricPrecision; image-rendering:optimizeQuality; fill-rule:evenodd; clip-rule:evenodd" xmlns:xlink="http://www.w3.org/1999/xlink">
<g><path style="opacity:0.986" fill="#eaebeb" d="M 333.5,262.5 C 340.448,253.266 345.281,242.932 348,231.5C 348.667,229.167 348.667,226.833 348,224.5C 334.22,218.86 321.054,212.027 308.5,204C 307.643,203.311 306.977,202.478 306.5,201.5C 308.437,200.256 310.104,198.756 311.5,197C 310.968,194.98 309.635,194.147 307.5,194.5C 306.908,191.309 305.741,188.309 304,185.5C 300.165,181.241 296.999,181.574 294.5,186.5C 295.242,188.98 296.242,191.313 297.5,193.5C 297.457,194.416 297.124,195.083 296.5,195.5C 276.041,175.466 252.374,170.133 225.5,179.5C 224.167,179.833 222.833,180.167 221.5,180.5C 219.435,180.517 217.435,180.85 215.5,181.5C 215.565,181.062 215.399,180.728 215,180.5C 213.905,181.693 213.072,183.027 212.5,184.5C 210.5,186.5 208.5,188.5 206.5,190.5C 205.473,186.554 205.306,182.554 206,178.5C 207.37,174.265 208.87,170.098 210.5,166C 205.063,158.29 201.397,149.79 199.5,140.5C 200.167,140.5 200.5,140.167 200.5,139.5C 201.167,139.5 201.5,139.167 201.5,138.5C 202.338,138.158 202.672,137.492 202.5,136.5C 202.5,135.833 202.5,135.167 202.5,134.5C 203.11,133.609 203.443,132.609 203.5,131.5C 203.784,129.585 203.451,127.919 202.5,126.5C 202.5,126.167 202.5,125.833 202.5,125.5C 203.167,125.5 203.5,125.167 203.5,124.5C 203.443,123.391 203.11,122.391 202.5,121.5C 202.737,120.209 202.404,119.209 201.5,118.5C 201.526,115.124 200.859,111.958 199.5,109C 199.944,104.833 201.278,100.999 203.5,97.5C 206.545,97.4921 209.545,97.1587 212.5,96.5C 212.44,88.3591 215.774,81.8591 222.5,77C 223.448,76.5172 224.448,76.3505 225.5,76.5C 225.176,83.3543 225.509,90.021 226.5,96.5C 228.402,93.6627 229.069,90.3293 228.5,86.5C 231.32,86.2475 233.986,86.7475 236.5,88C 238.417,90.4985 240.084,93.1651 241.5,96C 242.833,96.6667 244.167,96.6667 245.5,96C 243.65,92.6381 241.317,89.6381 238.5,87C 243.332,84.8712 244.665,81.3712 242.5,76.5C 241.423,75.2949 240.09,74.6282 238.5,74.5C 234.833,73.8333 231.167,73.1667 227.5,72.5C 227.953,71.5416 228.619,70.7083 229.5,70C 235.009,68.0726 240.342,65.906 245.5,63.5C 249.407,39.5939 263.407,26.2606 287.5,23.5C 299.008,24.2768 309.175,28.2768 318,35.5C 359.83,11.3602 397.163,17.0269 430,52.5C 438.056,63.9969 443.39,76.6636 446,90.5C 468.908,102.32 477.908,120.986 473,146.5C 471.215,151.863 469.048,157.03 466.5,162C 473.782,190.675 464.782,212.508 439.5,227.5C 439.904,272.902 418.904,303.402 376.5,319C 371.625,320.636 366.625,321.469 361.5,321.5C 369.649,301.022 370.149,280.356 363,259.5C 362.394,256.907 360.894,255.24 358.5,254.5C 350.803,259.183 342.47,261.85 333.5,262.5 Z M 382.5,70.5 C 393.317,71.6473 399.65,77.6473 401.5,88.5C 400.739,92.8659 398.406,96.0326 394.5,98C 388.199,97.4777 381.866,96.8111 375.5,96C 373.339,93.8513 372.172,91.3513 372,88.5C 373.57,87.6422 375.237,86.9755 377,86.5C 381.647,88.2647 386.313,88.598 391,87.5C 391.797,81.3071 388.964,78.8071 382.5,80C 380.218,77.6026 378.884,74.7693 378.5,71.5C 380.099,71.7678 381.432,71.4345 382.5,70.5 Z M 322.5,78.5 C 318.989,79.0029 316.656,81.0029 315.5,84.5C 315.876,86.3829 316.876,87.8829 318.5,89C 321.452,89.9904 323.786,91.1571 325.5,92.5C 324.833,92.8333 324.167,93.1667 323.5,93.5C 321.553,92.723 319.72,91.723 318,90.5C 313.853,92.0427 313.019,91.2094 315.5,88C 314.638,85.2471 313.305,82.7471 311.5,80.5C 300.617,77.9834 296.617,82.15 299.5,93C 298.552,93.4828 297.552,93.6495 296.5,93.5C 296.5,88.8333 296.5,84.1667 296.5,79.5C 294.712,79.2148 293.045,79.5481 291.5,80.5C 291.329,83.9191 291.663,87.4191 292.5,91C 290.167,94.3333 287.833,94.3333 285.5,91C 286.46,87.27 286.793,83.4367 286.5,79.5C 284.833,79.5 283.167,79.5 281.5,79.5C 281.797,83.7675 281.464,87.9341 280.5,92C 282.134,96.1439 285.134,97.9772 289.5,97.5C 287.51,98.9345 285.843,100.768 284.5,103C 282.866,103.494 281.199,103.66 279.5,103.5C 279.492,95.5324 279.492,87.5324 279.5,79.5C 277.265,79.7947 275.265,79.4614 273.5,78.5C 277.115,78.0879 280.282,76.7546 283,74.5C 286.921,73.3528 290.921,72.6862 295,72.5C 303.972,75.188 313.139,77.188 322.5,78.5 Z M 337.5,97.5 C 337.556,102.731 336.889,107.731 335.5,112.5C 319.74,109.929 312.073,116.596 312.5,132.5C 311.5,133.167 310.5,133.833 309.5,134.5C 308.067,133.167 306.733,131.667 305.5,130C 310.155,127.103 311.655,122.937 310,117.5C 308.893,114.887 307.06,113.22 304.5,112.5C 306.844,111.653 308.344,109.986 309,107.5C 309.747,104.076 309.58,100.743 308.5,97.5C 311.075,96.4322 313.242,94.7655 315,92.5C 318.366,97.609 322.866,98.7757 328.5,96C 331.405,92.6258 331.072,89.6258 327.5,87C 324.968,86.3811 322.635,85.3811 320.5,84C 323.014,83.4312 325.348,83.9312 327.5,85.5C 328.672,85.0814 329.672,84.4147 330.5,83.5C 331.192,84.0253 331.692,84.6919 332,85.5C 332.333,88.5 332.667,91.5 333,94.5C 333.589,96.8633 335.089,97.8633 337.5,97.5 Z M 275.5,102.5 C 270.431,100.65 265.431,98.6505 260.5,96.5C 261.237,94.6954 262.237,93.0287 263.5,91.5C 265.76,96.8815 269.593,98.5482 275,96.5C 275.495,98.4727 275.662,100.473 275.5,102.5 Z M 303.5,89.5 C 305.5,89.5 307.5,89.5 309.5,89.5C 308.581,95.5429 306.247,96.0429 302.5,91C 303.056,90.6174 303.389,90.1174 303.5,89.5 Z M 304.5,83.5 C 306.288,83.2148 307.955,83.5481 309.5,84.5C 307.579,85.641 305.579,85.8077 303.5,85C 304.056,84.6174 304.389,84.1174 304.5,83.5 Z M 364.5,93.5 C 367.565,94.7267 369.899,96.8934 371.5,100C 370.644,102.354 368.977,103.854 366.5,104.5C 363.8,102.766 361.8,100.432 360.5,97.5C 361.549,95.7844 362.882,94.4511 364.5,93.5 Z M 269.5,83.5 C 276.343,85.5255 277.176,89.1922 272,94.5C 267.149,91.7755 266.316,88.1088 269.5,83.5 Z M 292.5,119.5 C 294.527,119.338 296.527,119.505 298.5,120C 299.833,121.333 299.833,122.667 298.5,124C 296.527,124.495 294.527,124.662 292.5,124.5C 292.5,122.833 292.5,121.167 292.5,119.5 Z M 301.5,142.5 C 298.713,143.477 295.713,143.81 292.5,143.5C 292.176,139.445 292.509,135.445 293.5,131.5C 294.814,132.313 295.981,133.313 297,134.5C 298.274,137.391 299.774,140.058 301.5,142.5 Z M 377.5,132.5 C 393.257,133.799 404.091,141.799 410,156.5C 411.883,168.911 406.716,176.411 394.5,179C 389.167,179.333 383.833,179.667 378.5,180C 376.238,181.047 374.071,182.213 372,183.5C 367.704,180.708 363.538,177.708 359.5,174.5C 358.417,173.635 358.251,172.635 359,171.5C 361.928,167.619 365.761,165.119 370.5,164C 376.167,163.667 381.833,163.333 387.5,163C 392.534,160.852 393.701,157.352 391,152.5C 387.912,149.903 384.412,149.069 380.5,150C 378.938,152.115 376.938,153.115 374.5,153C 370.964,149.799 367.797,146.299 365,142.5C 364.26,141.251 364.427,140.251 365.5,139.5C 366.364,140.688 367.364,141.855 368.5,143C 372.211,143.825 375.878,143.659 379.5,142.5C 377.961,139.254 376.294,136.088 374.5,133C 375.448,132.517 376.448,132.351 377.5,132.5 Z M 282.5,137.5 C 282.5,139.167 282.5,140.833 282.5,142.5C 281.609,141.89 280.609,141.557 279.5,141.5C 279.443,140.391 279.11,139.391 278.5,138.5C 279.708,137.766 281.041,137.433 282.5,137.5 Z M 277.5,149.5 C 285.513,150.55 293.513,151.884 301.5,153.5C 301.833,154.5 302.167,155.5 302.5,156.5C 301.351,163.078 300.018,169.578 298.5,176C 289.587,176.469 280.92,175.303 272.5,172.5C 272.291,171.914 271.957,171.414 271.5,171C 272.714,164.886 273.881,158.72 275,152.5C 275.698,151.309 276.531,150.309 277.5,149.5 Z M 352.5,178.5 C 353.873,178.343 355.207,178.51 356.5,179C 360.729,182.066 364.395,185.566 367.5,189.5C 364.947,194.229 361.78,198.562 358,202.5C 352.515,199.009 347.681,194.843 343.5,190C 346.142,185.882 349.142,182.049 352.5,178.5 Z M 215.5,181.5 C 215.315,183.196 214.481,184.529 213,185.5C 212.601,185.272 212.435,184.938 212.5,184.5C 213.072,183.027 213.905,181.693 215,180.5C 215.399,180.728 215.565,181.062 215.5,181.5 Z M 435.5,218.5 C 437.975,218.747 437.975,219.413 435.5,220.5C 434.537,220.03 434.537,219.363 435.5,218.5 Z M 428.5,222.5 C 430.646,222.696 430.812,223.696 429,225.5C 428.517,224.552 428.351,223.552 428.5,222.5 Z"/></g>
<g><path style="opacity:0.036" fill="#cfcfcf" d="M 150.5,55.5 C 179.997,54.3362 209.664,54.1695 239.5,55C 240.833,55.6667 241.833,56.6667 242.5,58C 240.721,57.956 239.055,57.2893 237.5,56C 208.502,55.5 179.502,55.3334 150.5,55.5 Z"/></g>
<g><path style="opacity:0.097" fill="#eaebeb" d="M 453.5,53.5 C 455.679,53.84 457.512,54.84 459,56.5C 459.125,65.8665 459.292,75.1998 459.5,84.5C 459.564,86.3893 459.064,88.0559 458,89.5C 457.667,80.1667 457.333,70.8333 457,61.5C 455.761,56.6032 452.594,54.4365 447.5,55C 449.708,54.8091 451.708,54.3091 453.5,53.5 Z"/></g>
<g><path style="opacity:0.686" fill="#a5aeaf" d="M 227.5,72.5 C 231.167,73.1667 234.833,73.8333 238.5,74.5C 234.5,74.5 230.5,74.5 226.5,74.5C 226.5,81.8333 226.5,89.1667 226.5,96.5C 225.509,90.021 225.176,83.3543 225.5,76.5C 224.448,76.3505 223.448,76.5172 222.5,77C 215.774,81.8591 212.44,88.3591 212.5,96.5C 212.353,91.7858 212.686,87.1191 213.5,82.5C 215.963,80.5389 218.297,78.3722 220.5,76C 222.97,75.0112 225.303,73.8446 227.5,72.5 Z"/></g>
<g><path style="opacity:0.958" fill="#e8e9ea" d="M 133.5,113.5 C 132.833,113.5 132.5,113.833 132.5,114.5C 132.672,115.492 132.338,116.158 131.5,116.5C 130.673,115.561 130.006,115.895 129.5,117.5C 128.833,117.5 128.5,117.833 128.5,118.5C 127.662,118.842 127.328,119.508 127.5,120.5C 124.523,120.359 122.856,118.859 122.5,116C 123.87,110.215 126.204,104.882 129.5,100C 132.702,98.2375 135.702,96.2375 138.5,94C 136.852,91.0675 134.852,91.0675 132.5,94C 128.835,94.6772 125.501,93.8439 122.5,91.5C 121.386,90.277 121.219,88.9437 122,87.5C 129.031,80.3936 136.864,79.5602 145.5,85C 151.903,90.2179 152.736,96.0512 148,102.5C 143.055,105.148 138.222,107.981 133.5,111C 132.402,111.77 132.402,112.603 133.5,113.5 Z"/></g>
<g><path style="opacity:1" fill="#1d2b2e" d="M 213.5,82.5 C 212.686,87.1191 212.353,91.7858 212.5,96.5C 209.545,97.1587 206.545,97.4921 203.5,97.5C 196.919,93.0149 195.919,87.5149 200.5,81C 203.289,79.3364 206.123,79.1698 209,80.5C 209.497,78.1902 209.663,75.8568 209.5,73.5C 210.833,73.5 212.167,73.5 213.5,73.5C 213.5,76.5 213.5,79.5 213.5,82.5 Z M 203.5,83.5 C 206.571,82.9245 208.571,84.0912 209.5,87C 208.583,90.9632 206.416,92.7965 203,92.5C 202.264,89.408 202.431,86.408 203.5,83.5 Z"/></g>
<g><path style="opacity:1" fill="#1d2a2f" d="M 158.5,73.5 C 163.511,73.3341 168.511,73.5007 173.5,74C 178.334,76.3068 179.334,79.6401 176.5,84C 178.359,85.5578 179.859,87.3911 181,89.5C 182.859,88.4209 184.359,87.0876 185.5,85.5C 183.194,87.0143 181.861,86.3476 181.5,83.5C 182.01,81.9121 183.01,80.7455 184.5,80C 187.894,79.2483 191.227,79.4149 194.5,80.5C 195.357,81.7357 196.023,83.069 196.5,84.5C 195.41,88.8065 195.41,93.1399 196.5,97.5C 192.257,96.9028 187.924,96.9028 183.5,97.5C 183.167,96.5 182.5,95.8333 181.5,95.5C 180.307,91.3275 179.141,90.9942 178,94.5C 172.852,97.1392 167.352,98.1392 161.5,97.5C 161.5,90.1667 161.5,82.8333 161.5,75.5C 160.167,75.5 158.833,75.5 157.5,75.5C 157.833,74.8333 158.167,74.1667 158.5,73.5 Z M 190.5,92.5 C 188.751,94.8954 187.084,94.8954 185.5,92.5C 187.001,91.2485 188.668,90.2485 190.5,89.5C 191.776,90.6136 191.776,91.6136 190.5,92.5 Z M 166.5,86.5 C 169.962,86.6096 172.962,87.7763 175.5,90C 172.973,93.1188 169.64,94.2854 165.5,93.5C 165.298,91.0504 165.631,88.717 166.5,86.5 Z M 185.5,85.5 C 185.97,84.3065 186.97,83.6399 188.5,83.5C 189.5,83.8333 190.5,84.1667 191.5,84.5C 189.604,85.4656 187.604,85.7989 185.5,85.5 Z M 165.5,78.5 C 173.079,81.2224 173.079,82.8891 165.5,83.5C 165.5,81.8333 165.5,80.1667 165.5,78.5 Z M 170.5,78.5 C 171.497,77.2875 172.497,77.4542 173.5,79C 172.423,79.4696 171.423,79.3029 170.5,78.5 Z"/></g>
<g><path style="opacity:1" fill="#263236" d="M 238.5,74.5 C 240.09,74.6282 241.423,75.2949 242.5,76.5C 244.665,81.3712 243.332,84.8712 238.5,87C 241.317,89.6381 243.65,92.6381 245.5,96C 244.167,96.6667 242.833,96.6667 241.5,96C 240.084,93.1651 238.417,90.4985 236.5,88C 233.986,86.7475 231.32,86.2475 228.5,86.5C 229.069,90.3293 228.402,93.6627 226.5,96.5C 226.5,89.1667 226.5,81.8333 226.5,74.5C 230.5,74.5 234.5,74.5 238.5,74.5 Z"/></g>
<g><path style="opacity:1" fill="#d4d8db" d="M 228.5,76.5 C 231.85,76.335 235.183,76.5017 238.5,77C 241.167,79.3333 241.167,81.6667 238.5,84C 235.183,84.4983 231.85,84.665 228.5,84.5C 228.5,81.8333 228.5,79.1667 228.5,76.5 Z"/></g>
<g><path style="opacity:1" fill="#253135" d="M 337.5,97.5 C 335.089,97.8633 333.589,96.8633 333,94.5C 332.667,91.5 332.333,88.5 332,85.5C 331.692,84.6919 331.192,84.0253 330.5,83.5C 329.672,84.4147 328.672,85.0814 327.5,85.5C 325.348,83.9312 323.014,83.4312 320.5,84C 322.635,85.3811 324.968,86.3811 327.5,87C 331.072,89.6258 331.405,92.6258 328.5,96C 322.866,98.7757 318.366,97.609 315,92.5C 313.242,94.7655 311.075,96.4322 308.5,97.5C 304.796,97.6431 301.463,96.6431 298.5,94.5C 295.684,95.9565 292.684,96.9565 289.5,97.5C 285.134,97.9772 282.134,96.1439 280.5,92C 281.464,87.9341 281.797,83.7675 281.5,79.5C 283.167,79.5 284.833,79.5 286.5,79.5C 286.793,83.4367 286.46,87.27 285.5,91C 287.833,94.3333 290.167,94.3333 292.5,91C 291.663,87.4191 291.329,83.9191 291.5,80.5C 293.045,79.5481 294.712,79.2148 296.5,79.5C 296.5,84.1667 296.5,88.8333 296.5,93.5C 297.552,93.6495 298.552,93.4828 299.5,93C 296.617,82.15 300.617,77.9834 311.5,80.5C 313.305,82.7471 314.638,85.2471 315.5,88C 313.019,91.2094 313.853,92.0427 318,90.5C 319.72,91.723 321.553,92.723 323.5,93.5C 324.167,93.1667 324.833,92.8333 325.5,92.5C 323.786,91.1571 321.452,89.9904 318.5,89C 316.876,87.8829 315.876,86.3829 315.5,84.5C 316.656,81.0029 318.989,79.0029 322.5,78.5C 326.099,79.3439 329.766,79.6773 333.5,79.5C 333.275,77.2841 334.108,75.6174 336,74.5C 336.147,77.1104 336.981,79.4437 338.5,81.5C 336.654,85.5817 335.987,89.915 336.5,94.5C 340.005,94.6941 340.338,95.6941 337.5,97.5 Z M 303.5,89.5 C 303.389,90.1174 303.056,90.6174 302.5,91C 306.247,96.0429 308.581,95.5429 309.5,89.5C 307.5,89.5 305.5,89.5 303.5,89.5 Z M 304.5,83.5 C 304.389,84.1174 304.056,84.6174 303.5,85C 305.579,85.8077 307.579,85.641 309.5,84.5C 307.955,83.5481 306.288,83.2148 304.5,83.5 Z"/></g>
<g><path style="opacity:1" fill="#2d393b" d="M 273.5,78.5 C 275.265,79.4614 277.265,79.7947 279.5,79.5C 279.492,87.5324 279.492,95.5324 279.5,103.5C 278.041,103.567 276.708,103.234 275.5,102.5C 275.662,100.473 275.495,98.4727 275,96.5C 269.593,98.5482 265.76,96.8815 263.5,91.5C 262.237,93.0287 261.237,94.6954 260.5,96.5C 249.727,98.5599 245.56,94.2265 248,83.5C 253.63,79.079 258.63,79.7456 263,85.5C 265.979,81.6435 269.479,79.3101 273.5,78.5 Z M 269.5,83.5 C 266.316,88.1088 267.149,91.7755 272,94.5C 277.176,89.1922 276.343,85.5255 269.5,83.5 Z"/></g>
<g><path style="opacity:1" fill="#dfe7ea" d="M 250.5,89.5 C 253.898,89.1796 257.232,89.513 260.5,90.5C 258.031,94.8269 254.864,95.4936 251,92.5C 250.517,91.552 250.351,90.552 250.5,89.5 Z"/></g>
<g><path style="opacity:1" fill="#e0e9ec" d="M 252.5,82.5 C 256.241,81.5985 258.241,82.9319 258.5,86.5C 255.753,86.8134 253.086,86.48 250.5,85.5C 251.193,84.4822 251.859,83.4822 252.5,82.5 Z"/></g>
<g><path style="opacity:0.96" fill="#ebebeb" d="M 87.5,101.5 C 93.5629,100.838 99.2296,102.004 104.5,105C 109.495,109.639 110.995,115.139 109,121.5C 107.056,125.11 104.723,128.443 102,131.5C 101.103,134.49 100.269,137.49 99.5,140.5C 103.174,145.194 104.674,150.527 104,156.5C 100.127,157.876 96.1269,158.876 92,159.5C 90.2894,159.561 88.956,158.894 88,157.5C 87.1179,150.605 85.9512,143.772 84.5,137C 85.6327,130.901 88.466,125.735 93,121.5C 94.5,116.333 92.6667,114.5 87.5,116C 85.6473,118.571 83.9806,121.238 82.5,124C 77.9147,125.225 73.248,125.725 68.5,125.5C 68.1929,112.149 74.5262,104.149 87.5,101.5 Z M 93.5,141.5 C 98.6935,141.589 98.6935,142.255 93.5,143.5C 92.8333,143.333 92.1667,143.167 91.5,143C 92.4158,142.722 93.0825,142.222 93.5,141.5 Z"/></g>
<g><path style="opacity:0.298" fill="#aab3bb" d="M 181.5,95.5 C 182.5,95.8333 183.167,96.5 183.5,97.5C 185.162,101.446 185.496,105.446 184.5,109.5C 183.833,109.5 183.167,109.5 182.5,109.5C 182.647,104.786 182.314,100.119 181.5,95.5 Z"/></g>
<g><path style="opacity:1" fill="#1d2d34" d="M 220.5,113.5 C 228.5,113.5 236.5,113.5 244.5,113.5C 244.5,115.5 244.5,117.5 244.5,119.5C 239.5,119.5 234.5,119.5 229.5,119.5C 229.5,121.167 229.5,122.833 229.5,124.5C 234.167,124.5 238.833,124.5 243.5,124.5C 243.5,126.5 243.5,128.5 243.5,130.5C 238.833,130.5 234.167,130.5 229.5,130.5C 229.5,132.5 229.5,134.5 229.5,136.5C 234.833,136.5 240.167,136.5 245.5,136.5C 245.5,138.5 245.5,140.5 245.5,142.5C 237.167,142.5 228.833,142.5 220.5,142.5C 220.5,132.833 220.5,123.167 220.5,113.5 Z"/></g>
<g><path style="opacity:1" fill="#1d2d34" d="M 304.5,112.5 C 307.06,113.22 308.893,114.887 310,117.5C 311.655,122.937 310.155,127.103 305.5,130C 306.733,131.667 308.067,133.167 309.5,134.5C 309.4,137.108 310.067,139.442 311.5,141.5C 308.375,142.479 305.042,142.813 301.5,142.5C 299.774,140.058 298.274,137.391 297,134.5C 295.981,133.313 294.814,132.313 293.5,131.5C 292.509,135.445 292.176,139.445 292.5,143.5C 289.061,143.747 285.728,143.414 282.5,142.5C 282.5,140.833 282.5,139.167 282.5,137.5C 283.467,129.586 283.801,121.586 283.5,113.5C 290.543,113.72 297.543,113.386 304.5,112.5 Z M 292.5,119.5 C 292.5,121.167 292.5,122.833 292.5,124.5C 294.527,124.662 296.527,124.495 298.5,124C 299.833,122.667 299.833,121.333 298.5,120C 296.527,119.505 294.527,119.338 292.5,119.5 Z"/></g>
<g><path style="opacity:1" fill="#23343a" d="M 377.5,132.5 C 376.448,132.351 375.448,132.517 374.5,133C 376.294,136.088 377.961,139.254 379.5,142.5C 375.878,143.659 372.211,143.825 368.5,143C 367.364,141.855 366.364,140.688 365.5,139.5C 365.736,136.774 364.903,134.441 363,132.5C 361.989,131.663 360.822,131.33 359.5,131.5C 359.665,135.182 359.499,138.848 359,142.5C 355.943,143.451 352.777,143.784 349.5,143.5C 349.5,133.5 349.5,123.5 349.5,113.5C 357.174,113.334 364.841,113.5 372.5,114C 377.118,118.162 377.785,122.995 374.5,128.5C 374.787,130.443 375.787,131.777 377.5,132.5 Z"/></g>
<g><path style="opacity:1" fill="#d5d9de" d="M 358.5,119.5 C 361.187,119.336 363.854,119.503 366.5,120C 367.86,121.938 367.527,123.604 365.5,125C 363.19,125.497 360.857,125.663 358.5,125.5C 358.5,123.5 358.5,121.5 358.5,119.5 Z"/></g>
<g><path style="opacity:1" fill="#1a7cef" d="M 127.5,120.5 C 129.105,119.994 129.439,119.327 128.5,118.5C 128.5,117.833 128.833,117.5 129.5,117.5C 130.492,117.672 131.158,117.338 131.5,116.5C 132.338,116.158 132.672,115.492 132.5,114.5C 133.167,114.5 133.5,114.167 133.5,113.5C 134.531,112.645 135.697,111.978 137,111.5C 139.054,112.079 141.054,112.412 143,112.5C 144.574,117.646 144.74,122.812 143.5,128C 144.032,130.02 145.365,130.853 147.5,130.5C 147.663,132.857 147.497,135.19 147,137.5C 145.989,138.337 144.822,138.67 143.5,138.5C 143.5,140.167 143.5,141.833 143.5,143.5C 140.833,143.5 138.167,143.5 135.5,143.5C 135.949,141.023 135.283,139.023 133.5,137.5C 129.302,138.809 125.136,138.809 121,137.5C 120.333,134.833 120.333,132.167 121,129.5C 123.385,126.621 125.552,123.621 127.5,120.5 Z M 133.5,124.5 C 136.889,129.301 135.556,131.135 129.5,130C 131.439,128.568 132.772,126.735 133.5,124.5 Z"/></g>
<g><path style="opacity:1" fill="#1478eb" d="M 148.5,123.5 C 149.55,128.082 150.717,132.749 152,137.5C 153.333,138.833 154.667,138.833 156,137.5C 156.667,132.167 156.667,126.833 156,121.5C 154.102,119.316 151.936,118.983 149.5,120.5C 151.35,114.475 155.517,111.475 162,111.5C 168.898,112.067 172.898,115.733 174,122.5C 174.751,127.572 174.418,132.572 173,137.5C 167.914,144.719 161.414,146.219 153.5,142C 149.426,136.542 147.759,130.375 148.5,123.5 Z M 160.5,118.5 C 162.017,118.511 163.184,119.177 164,120.5C 164.667,125.5 164.667,130.5 164,135.5C 162.333,138.167 160.667,138.167 159,135.5C 157.99,129.62 158.49,123.954 160.5,118.5 Z"/></g>
<g><path style="opacity:1" fill="#057bf8" d="M 148.5,123.5 C 148.557,122.391 148.89,121.391 149.5,120.5C 151.936,118.983 154.102,119.316 156,121.5C 156.667,126.833 156.667,132.167 156,137.5C 154.667,138.833 153.333,138.833 152,137.5C 150.717,132.749 149.55,128.082 148.5,123.5 Z"/></g>
<g><path style="opacity:1" fill="#223339" d="M 278.5,138.5 C 279.11,139.391 279.443,140.391 279.5,141.5C 276.375,142.479 273.042,142.813 269.5,142.5C 267.929,139.077 266.095,135.743 264,132.5C 262.989,131.663 261.822,131.33 260.5,131.5C 260.5,135.5 260.5,139.5 260.5,143.5C 257.167,143.5 253.833,143.5 250.5,143.5C 250.5,133.5 250.5,123.5 250.5,113.5C 258.174,113.334 265.841,113.5 273.5,114C 279.207,120.059 278.54,125.392 271.5,130C 274.21,132.628 276.544,135.461 278.5,138.5 Z"/></g>
<g><path style="opacity:1" fill="#e6ecec" d="M 260.5,119.5 C 262.857,119.337 265.19,119.503 267.5,120C 268.833,121.333 268.833,122.667 267.5,124C 265.19,124.497 262.857,124.663 260.5,124.5C 260.5,122.833 260.5,121.167 260.5,119.5 Z"/></g>
<g><path style="opacity:1" fill="#197bea" d="M 182.5,109.5 C 183.167,109.5 183.833,109.5 184.5,109.5C 184.586,110.496 184.252,111.329 183.5,112C 187.432,111.475 191.432,111.808 195.5,113C 198.023,114.36 200.023,116.193 201.5,118.5C 201.263,119.791 201.596,120.791 202.5,121.5C 203.11,122.391 203.443,123.391 203.5,124.5C 202.833,124.5 202.5,124.833 202.5,125.5C 202.5,125.833 202.5,126.167 202.5,126.5C 202.216,128.415 202.549,130.081 203.5,131.5C 203.443,132.609 203.11,133.609 202.5,134.5C 201.167,135.167 201.167,135.833 202.5,136.5C 202.672,137.492 202.338,138.158 201.5,138.5C 201.5,139.167 201.167,139.5 200.5,139.5C 199.833,139.5 199.5,139.833 199.5,140.5C 197.281,142.606 194.615,143.606 191.5,143.5C 189.901,143.232 188.568,143.566 187.5,144.5C 181.028,143.19 177.528,139.19 177,132.5C 175.403,125.217 177.07,118.884 182,113.5C 182.49,112.207 182.657,110.873 182.5,109.5 Z M 188.5,118.5 C 190.017,118.511 191.184,119.177 192,120.5C 192.828,125.202 192.662,129.869 191.5,134.5C 190.306,137.619 188.806,137.952 187,135.5C 186.052,129.65 186.552,123.983 188.5,118.5 Z"/></g>
<g><path style="opacity:1" fill="#1e2f36" d="M 335.5,112.5 C 345.598,119.954 347.265,129.12 340.5,140C 328.489,146.656 319.156,144.156 312.5,132.5C 312.073,116.596 319.74,109.929 335.5,112.5 Z"/></g>
<g><path style="opacity:1" fill="#e6e8e9" d="M 326.5,119.5 C 334.752,119.962 337.585,124.296 335,132.5C 331.829,137.414 328.163,137.747 324,133.5C 321.498,128.172 322.332,123.506 326.5,119.5 Z"/></g>
<g><path style="opacity:1" fill="#abb3b5" d="M 279.5,141.5 C 280.609,141.557 281.609,141.89 282.5,142.5C 285.728,143.414 289.061,143.747 292.5,143.5C 295.713,143.81 298.713,143.477 301.5,142.5C 305.042,142.813 308.375,142.479 311.5,141.5C 312.043,141.56 312.376,141.893 312.5,142.5C 305.975,143.284 299.642,144.618 293.5,146.5C 285.416,144.828 277.416,143.495 269.5,142.5C 273.042,142.813 276.375,142.479 279.5,141.5 Z"/></g>
<g><path style="opacity:1" fill="#027cfc" d="M 235.5,178.5 C 236.919,179.451 238.585,179.784 240.5,179.5C 240.287,182.475 239.287,185.142 237.5,187.5C 237.449,195.256 240.116,202.09 245.5,208C 245.167,208.333 244.833,208.667 244.5,209C 247.703,210.172 249.203,212.339 249,215.5C 246.153,214.494 243.319,213.494 240.5,212.5C 240.688,210.897 240.188,209.563 239,208.5C 236.2,209.125 233.366,209.792 230.5,210.5C 228.368,213.614 228.034,216.947 229.5,220.5C 233.307,223.528 237.641,225.195 242.5,225.5C 242.833,225.5 243.167,225.5 243.5,225.5C 245.953,227.771 248.953,229.104 252.5,229.5C 250.5,232.167 248.5,232.167 246.5,229.5C 244.444,231.019 242.11,231.853 239.5,232C 240.684,233.145 240.684,234.312 239.5,235.5C 237.516,235.383 235.85,236.05 234.5,237.5C 234.167,237.167 233.833,236.833 233.5,236.5C 234.5,235.667 235.5,234.833 236.5,234C 235.234,233.691 234.067,233.191 233,232.5C 230.954,234.376 229.121,236.376 227.5,238.5C 226.52,241.086 226.187,243.753 226.5,246.5C 224.418,246.528 222.584,245.861 221,244.5C 217.043,248.823 213.21,248.99 209.5,245C 204.511,244.501 199.511,244.334 194.5,244.5C 194.768,242.901 194.434,241.568 193.5,240.5C 193.179,239.183 192.846,237.849 192.5,236.5C 193.17,228.116 194.17,219.782 195.5,211.5C 198.397,210.227 201.063,210.561 203.5,212.5C 206.314,215.33 209.647,215.996 213.5,214.5C 215.183,211.398 215.849,208.064 215.5,204.5C 211.225,203.348 206.892,202.348 202.5,201.5C 203.693,197.451 205.693,193.784 208.5,190.5C 212.876,187.112 217.209,183.778 221.5,180.5C 222.833,180.167 224.167,179.833 225.5,179.5C 228.807,178.949 232.14,178.616 235.5,178.5 Z"/></g>
<g><path style="opacity:0.496" fill="#dfe0e0" d="M 158.5,73.5 C 158.167,74.1667 157.833,74.8333 157.5,75.5C 153.25,74.7275 148.917,74.2275 144.5,74C 137.271,62.2185 127.271,59.2185 114.5,65C 110.929,68.4014 107.595,71.9014 104.5,75.5C 81.6724,71.512 65.8391,80.1787 57,101.5C 54.4313,109.707 53.7646,118.041 55,126.5C 47.6155,135.103 46.6155,144.436 52,154.5C 57.1607,158.651 60.1607,163.984 61,170.5C 65.5498,180.704 73.3831,186.871 84.5,189C 90.8523,205.849 102.852,216.183 120.5,220C 124.833,220.667 129.167,220.667 133.5,220C 133.957,219.586 134.291,219.086 134.5,218.5C 131.118,212.403 128.284,206.07 126,199.5C 125.501,194.845 125.334,190.179 125.5,185.5C 147.08,187.798 161.58,178.798 169,158.5C 177.206,156.336 183.373,151.669 187.5,144.5C 188.568,143.566 189.901,143.232 191.5,143.5C 189.204,148.318 185.871,152.484 181.5,156C 174,158.167 169.167,163 167,170.5C 157.591,182.788 145.091,189.122 129.5,189.5C 127.926,200.941 131.426,210.608 140,218.5C 140.494,220.134 140.66,221.801 140.5,223.5C 112.916,226.714 93.2492,215.88 81.5,191C 67.2549,187.754 58.7549,178.921 56,164.5C 43.6699,152.194 42.3366,138.86 52,124.5C 49.2922,97.0636 61.1255,79.5636 87.5,72C 93.5,71.6667 99.5,71.3333 105.5,71C 119.05,54.4539 132.717,54.4539 146.5,71C 150.665,71.7054 154.665,72.5387 158.5,73.5 Z"/></g>
<g><path style="opacity:1" fill="#1267d0" d="M 296.5,195.5 C 296.241,199.24 296.574,202.906 297.5,206.5C 301.916,210.357 306.583,213.691 311.5,216.5C 312.167,218.5 312.833,220.5 313.5,222.5C 311.586,221.815 309.586,221.315 307.5,221C 306.643,220.311 305.977,219.478 305.5,218.5C 308.18,215.853 307.513,214.52 303.5,214.5C 302.188,217.024 301.688,219.691 302,222.5C 307.775,233.556 311.608,245.223 313.5,257.5C 310.411,257.094 307.745,255.76 305.5,253.5C 308.334,251.559 309.168,248.893 308,245.5C 307.138,247.087 306.471,248.754 306,250.5C 306.063,237.363 302.729,225.03 296,213.5C 288.088,199.262 276.588,188.762 261.5,182C 252.786,180.792 244.119,179.626 235.5,178.5C 232.14,178.616 228.807,178.949 225.5,179.5C 252.374,170.133 276.041,175.466 296.5,195.5 Z"/></g>
<g><path style="opacity:1" fill="#1a2d37" d="M 200.5,200.5 C 204.671,202.613 208.838,204.946 213,207.5C 213.743,209.441 213.576,211.274 212.5,213C 209.445,213.634 206.445,213.468 203.5,212.5C 201.063,210.561 198.397,210.227 195.5,211.5C 191.248,212.418 188.582,215.084 187.5,219.5C 180.712,223.217 177.879,221.217 179,213.5C 182.981,204.039 190.147,199.705 200.5,200.5 Z"/></g>
<g><path style="opacity:1" fill="#297cd6" d="M 221.5,180.5 C 217.209,183.778 212.876,187.112 208.5,190.5C 205.693,193.784 203.693,197.451 202.5,201.5C 206.892,202.348 211.225,203.348 215.5,204.5C 215.849,208.064 215.183,211.398 213.5,214.5C 209.647,215.996 206.314,215.33 203.5,212.5C 206.445,213.468 209.445,213.634 212.5,213C 213.576,211.274 213.743,209.441 213,207.5C 208.838,204.946 204.671,202.613 200.5,200.5C 202.5,197.167 204.5,193.833 206.5,190.5C 208.5,188.5 210.5,186.5 212.5,184.5C 212.435,184.938 212.601,185.272 213,185.5C 214.481,184.529 215.315,183.196 215.5,181.5C 217.435,180.85 219.435,180.517 221.5,180.5 Z"/></g>
<g><path style="opacity:1" fill="#056ee5" d="M 235.5,178.5 C 244.119,179.626 252.786,180.792 261.5,182C 276.588,188.762 288.088,199.262 296,213.5C 302.729,225.03 306.063,237.363 306,250.5C 306.471,248.754 307.138,247.087 308,245.5C 309.168,248.893 308.334,251.559 305.5,253.5C 307.745,255.76 310.411,257.094 313.5,257.5C 311.608,245.223 307.775,233.556 302,222.5C 301.688,219.691 302.188,217.024 303.5,214.5C 307.513,214.52 308.18,215.853 305.5,218.5C 305.977,219.478 306.643,220.311 307.5,221C 309.586,221.315 311.586,221.815 313.5,222.5C 316.832,228.507 319.666,234.84 322,241.5C 323.893,246.007 325.059,250.673 325.5,255.5C 323.868,258.188 321.868,260.688 319.5,263C 313.919,264.686 311.585,268.186 312.5,273.5C 313.548,274.383 314.715,275.05 316,275.5C 319.425,274.071 322.259,271.904 324.5,269C 326.154,268.392 327.821,267.892 329.5,267.5C 333.876,288.256 336.209,309.256 336.5,330.5C 335.735,330.923 334.902,331.257 334,331.5C 330.856,329.176 327.356,327.842 323.5,327.5C 323.595,314.678 322.428,302.011 320,289.5C 320.688,301.796 321.188,314.13 321.5,326.5C 315.794,326.171 310.128,326.505 304.5,327.5C 300.903,328.873 297.569,330.706 294.5,333C 293.242,334.741 292.242,336.574 291.5,338.5C 285.813,345.045 283.98,352.711 286,361.5C 287.707,363.909 288.54,366.575 288.5,369.5C 273.615,371.963 258.615,372.63 243.5,371.5C 232.726,371.102 222.726,368.269 213.5,363C 211.574,360.262 209.574,357.762 207.5,355.5C 211.07,354.615 214.737,353.615 218.5,352.5C 214.361,342.76 210.361,333.093 206.5,323.5C 207.089,319.933 207.089,316.267 206.5,312.5C 208.25,317.167 209.75,322.167 211,327.5C 211.667,324.833 212.333,324.833 213,327.5C 214.756,326.579 214.923,325.412 213.5,324C 213.63,322.941 214.13,322.108 215,321.5C 215.088,325.756 214.588,329.756 213.5,333.5C 215.58,336.472 216.747,339.806 217,343.5C 217.333,343.167 217.667,342.833 218,342.5C 218.482,347.13 220.315,351.13 223.5,354.5C 219.541,355.478 216.208,357.478 213.5,360.5C 214.651,361.731 215.817,361.731 217,360.5C 218.758,361.469 219.258,362.636 218.5,364C 236.553,370.325 255.22,372.159 274.5,369.5C 271.021,361.033 270.521,352.367 273,343.5C 275.56,337.708 277.56,331.708 279,325.5C 280.563,311.51 279.229,297.843 275,284.5C 274.586,284.043 274.086,283.709 273.5,283.5C 271.55,284.372 269.55,285.039 267.5,285.5C 273.117,281.953 277.617,277.286 281,271.5C 281.694,268.532 282.194,265.532 282.5,262.5C 282.639,260.117 281.972,258.117 280.5,256.5C 279.962,254.883 279.629,253.216 279.5,251.5C 278.359,245.506 275.026,241.006 269.5,238C 259.702,233.249 249.702,232.415 239.5,235.5C 240.684,234.312 240.684,233.145 239.5,232C 242.11,231.853 244.444,231.019 246.5,229.5C 248.5,232.167 250.5,232.167 252.5,229.5C 248.953,229.104 245.953,227.771 243.5,225.5C 254.734,227.809 266.068,228.143 277.5,226.5C 277.5,224.167 277.5,221.833 277.5,219.5C 262.208,221.556 247.875,218.889 234.5,211.5C 230.5,211.663 229,213.663 230,217.5C 234.054,220.595 238.221,223.261 242.5,225.5C 237.641,225.195 233.307,223.528 229.5,220.5C 228.034,216.947 228.368,213.614 230.5,210.5C 233.366,209.792 236.2,209.125 239,208.5C 240.188,209.563 240.688,210.897 240.5,212.5C 243.319,213.494 246.153,214.494 249,215.5C 249.203,212.339 247.703,210.172 244.5,209C 244.833,208.667 245.167,208.333 245.5,208C 240.116,202.09 237.449,195.256 237.5,187.5C 239.287,185.142 240.287,182.475 240.5,179.5C 238.585,179.784 236.919,179.451 235.5,178.5 Z"/></g>
<g><path style="opacity:1" fill="#183041" d="M 243.5,225.5 C 243.167,225.5 242.833,225.5 242.5,225.5C 238.221,223.261 234.054,220.595 230,217.5C 229,213.663 230.5,211.663 234.5,211.5C 247.875,218.889 262.208,221.556 277.5,219.5C 277.5,221.833 277.5,224.167 277.5,226.5C 266.068,228.143 254.734,227.809 243.5,225.5 Z"/></g>
<g><path style="opacity:1" fill="#1e3039" d="M 333.5,262.5 C 331.793,263.873 330.46,265.539 329.5,267.5C 327.821,267.892 326.154,268.392 324.5,269C 322.259,271.904 319.425,274.071 316,275.5C 314.715,275.05 313.548,274.383 312.5,273.5C 311.585,268.186 313.919,264.686 319.5,263C 321.868,260.688 323.868,258.188 325.5,255.5C 332.242,249.199 336.575,241.366 338.5,232C 338.167,231.167 337.833,230.333 337.5,229.5C 328.528,225.681 319.861,221.347 311.5,216.5C 306.583,213.691 301.916,210.357 297.5,206.5C 296.574,202.906 296.241,199.24 296.5,195.5C 297.124,195.083 297.457,194.416 297.5,193.5C 296.242,191.313 295.242,188.98 294.5,186.5C 296.999,181.574 300.165,181.241 304,185.5C 305.741,188.309 306.908,191.309 307.5,194.5C 309.635,194.147 310.968,194.98 311.5,197C 310.104,198.756 308.437,200.256 306.5,201.5C 306.977,202.478 307.643,203.311 308.5,204C 321.054,212.027 334.22,218.86 348,224.5C 348.667,226.833 348.667,229.167 348,231.5C 345.281,242.932 340.448,253.266 333.5,262.5 Z"/></g>
<g><path style="opacity:0.98" fill="#4078b6" d="M 150.5,230.5 C 149.026,229.325 147.36,228.325 145.5,227.5C 145.833,226.5 146.5,225.833 147.5,225.5C 152.25,227.417 155.917,230.584 158.5,235C 158,235.5 157.5,236 157,236.5C 155.594,233.591 153.428,231.591 150.5,230.5 Z"/></g>
<g><path style="opacity:1" fill="#0d79ed" d="M 239.5,235.5 C 231.275,243.043 228.608,252.376 231.5,263.5C 232.518,264.193 233.518,264.859 234.5,265.5C 235.167,266.833 235.833,268.167 236.5,269.5C 235.402,270.601 235.235,271.934 236,273.5C 236.901,276.071 238.234,278.404 240,280.5C 243.514,283.5 247.347,285.833 251.5,287.5C 247.796,287.643 244.463,286.643 241.5,284.5C 238.811,284.545 237.477,285.879 237.5,288.5C 240.574,288.873 243.574,289.539 246.5,290.5C 246.5,291.833 246.5,293.167 246.5,294.5C 244.585,294.784 242.919,294.451 241.5,293.5C 242.978,293.762 244.311,293.429 245.5,292.5C 237.783,288.572 229.783,287.738 221.5,290C 220.333,291.167 219.167,292.333 218,293.5C 217.251,294.635 217.417,295.635 218.5,296.5C 220.316,295.185 221.983,293.685 223.5,292C 227.833,291.333 232.167,291.333 236.5,292C 237.737,292.232 238.737,292.732 239.5,293.5C 231.794,291.34 225.461,293.34 220.5,299.5C 218.533,298.318 217.2,298.985 216.5,301.5C 215.719,300.271 215.219,298.938 215,297.5C 211.565,298.466 208.065,298.466 204.5,297.5C 206.24,302.26 206.906,307.26 206.5,312.5C 206.167,312.5 205.833,312.5 205.5,312.5C 203.656,304.126 201.656,295.793 199.5,287.5C 201.719,286.46 203.719,286.96 205.5,289C 213.839,291.118 219.672,288.285 223,280.5C 224.616,277.176 224.783,273.843 223.5,270.5C 222.766,269.292 222.433,267.959 222.5,266.5C 221.168,256.655 215.834,249.821 206.5,246C 202.179,245.501 197.846,245.334 193.5,245.5C 193.5,243.833 193.5,242.167 193.5,240.5C 194.434,241.568 194.768,242.901 194.5,244.5C 199.511,244.334 204.511,244.501 209.5,245C 213.21,248.99 217.043,248.823 221,244.5C 222.584,245.861 224.418,246.528 226.5,246.5C 226.187,243.753 226.52,241.086 227.5,238.5C 229.121,236.376 230.954,234.376 233,232.5C 234.067,233.191 235.234,233.691 236.5,234C 235.5,234.833 234.5,235.667 233.5,236.5C 233.833,236.833 234.167,237.167 234.5,237.5C 235.85,236.05 237.516,235.383 239.5,235.5 Z"/></g>
<g><path style="opacity:1" fill="#e8eaec" d="M 311.5,216.5 C 319.861,221.347 328.528,225.681 337.5,229.5C 337.833,230.333 338.167,231.167 338.5,232C 336.575,241.366 332.242,249.199 325.5,255.5C 325.059,250.673 323.893,246.007 322,241.5C 319.666,234.84 316.832,228.507 313.5,222.5C 312.833,220.5 312.167,218.5 311.5,216.5 Z"/></g>
<g><path style="opacity:0.999" fill="#1a2e38" d="M 279.5,251.5 C 272.715,254.428 265.715,256.762 258.5,258.5C 258.025,261.323 259.025,263.323 261.5,264.5C 267.793,262.677 274.126,261.01 280.5,259.5C 280.5,258.5 280.5,257.5 280.5,256.5C 281.972,258.117 282.639,260.117 282.5,262.5C 282.194,265.532 281.694,268.532 281,271.5C 277.617,277.286 273.117,281.953 267.5,285.5C 262.322,287.085 256.988,287.752 251.5,287.5C 247.347,285.833 243.514,283.5 240,280.5C 238.234,278.404 236.901,276.071 236,273.5C 235.235,271.934 235.402,270.601 236.5,269.5C 236.56,270.043 236.893,270.376 237.5,270.5C 239.444,269.811 241.444,269.311 243.5,269C 245.158,268.275 245.658,267.108 245,265.5C 243.82,264.316 242.32,263.649 240.5,263.5C 238.117,263.361 236.117,264.028 234.5,265.5C 233.518,264.859 232.518,264.193 231.5,263.5C 228.608,252.376 231.275,243.043 239.5,235.5C 249.702,232.415 259.702,233.249 269.5,238C 275.026,241.006 278.359,245.506 279.5,251.5 Z"/></g>
<g><path style="opacity:0.935" fill="#396596" d="M 157.5,240.5 C 158.478,240.811 159.145,241.478 159.5,242.5C 158.948,244.333 158.115,246 157,247.5C 156.5,247 156,246.5 155.5,246C 156.244,244.185 156.911,242.352 157.5,240.5 Z"/></g>
<g><path style="opacity:1" fill="#0f7bf0" d="M 150.5,230.5 C 153.755,233.009 155.421,236.342 155.5,240.5C 154.92,244.333 153.753,248 152,251.5C 151.503,253.81 151.337,256.143 151.5,258.5C 147.914,259.793 144.248,260.793 140.5,261.5C 139.624,258.201 139.457,254.868 140,251.5C 141.167,248.667 142.333,245.833 143.5,243C 142.055,239.863 140.222,239.697 138,242.5C 137.505,244.473 137.338,246.473 137.5,248.5C 134.06,249.091 130.727,250.091 127.5,251.5C 124.073,247.166 123.906,242.5 127,237.5C 133.494,230.613 141.328,228.279 150.5,230.5 Z"/></g>
<g><path style="opacity:1" fill="#1b2d36" d="M 193.5,245.5 C 197.846,245.334 202.179,245.501 206.5,246C 215.834,249.821 221.168,256.655 222.5,266.5C 217.942,266.105 213.275,266.105 208.5,266.5C 208.5,268.167 208.5,269.833 208.5,271.5C 213.864,271.631 218.864,271.298 223.5,270.5C 224.783,273.843 224.616,277.176 223,280.5C 219.672,288.285 213.839,291.118 205.5,289C 203.719,286.96 201.719,286.46 199.5,287.5C 196.397,282.807 193.397,277.973 190.5,273C 191,272.5 191.5,272 192,271.5C 194.381,272.435 196.881,272.768 199.5,272.5C 199.579,271.07 199.246,269.736 198.5,268.5C 195.346,266.974 192.013,266.307 188.5,266.5C 188.016,258.903 189.683,251.903 193.5,245.5 Z"/></g>
<g><path style="opacity:1" fill="#157aed" d="M 150.5,259.5 C 151.822,259.33 152.989,259.663 154,260.5C 155.303,262.94 156.47,265.44 157.5,268C 157.355,268.772 157.022,269.439 156.5,270C 153.136,271.099 149.97,272.599 147,274.5C 145.38,271.425 143.88,268.258 142.5,265C 142.645,264.228 142.978,263.561 143.5,263C 145.925,261.787 148.259,260.621 150.5,259.5 Z"/></g>
<g><path style="opacity:1" fill="#147aee" d="M 115.5,261.5 C 118.192,262.009 120.692,263.009 123,264.5C 124.575,269.876 126.242,275.209 128,280.5C 128.333,280.167 128.667,279.833 129,279.5C 137.318,284.167 137.151,288.334 128.5,292C 127.271,290.471 125.771,289.304 124,288.5C 124,287.167 124,285.833 124,284.5C 122.518,286.781 120.851,286.781 119,284.5C 117.257,281.043 116.257,277.377 116,273.5C 114.989,272.663 113.822,272.33 112.5,272.5C 112.247,274.827 112.914,276.827 114.5,278.5C 112.517,280.984 110.35,283.317 108,285.5C 101.947,278.596 102.114,271.763 108.5,265C 110.713,263.384 113.047,262.217 115.5,261.5 Z"/></g>
<g><path style="opacity:1" fill="#007cfd" d="M 206.5,312.5 C 206.906,307.26 206.24,302.26 204.5,297.5C 208.065,298.466 211.565,298.466 215,297.5C 215.219,298.938 215.719,300.271 216.5,301.5C 217.2,298.985 218.533,298.318 220.5,299.5C 225.461,293.34 231.794,291.34 239.5,293.5C 240.167,293.5 240.833,293.5 241.5,293.5C 242.919,294.451 244.585,294.784 246.5,294.5C 246.5,293.167 246.5,291.833 246.5,290.5C 243.574,289.539 240.574,288.873 237.5,288.5C 237.477,285.879 238.811,284.545 241.5,284.5C 244.463,286.643 247.796,287.643 251.5,287.5C 256.988,287.752 262.322,287.085 267.5,285.5C 269.55,285.039 271.55,284.372 273.5,283.5C 274.086,283.709 274.586,284.043 275,284.5C 279.229,297.843 280.563,311.51 279,325.5C 277.56,331.708 275.56,337.708 273,343.5C 270.521,352.367 271.021,361.033 274.5,369.5C 255.22,372.159 236.553,370.325 218.5,364C 219.258,362.636 218.758,361.469 217,360.5C 215.817,361.731 214.651,361.731 213.5,360.5C 216.208,357.478 219.541,355.478 223.5,354.5C 220.315,351.13 218.482,347.13 218,342.5C 217.667,342.833 217.333,343.167 217,343.5C 216.747,339.806 215.58,336.472 213.5,333.5C 214.588,329.756 215.088,325.756 215,321.5C 214.13,322.108 213.63,322.941 213.5,324C 214.923,325.412 214.756,326.579 213,327.5C 212.333,324.833 211.667,324.833 211,327.5C 209.75,322.167 208.25,317.167 206.5,312.5 Z"/></g>
<g><path style="opacity:1" fill="#083560" d="M 241.5,293.5 C 240.833,293.5 240.167,293.5 239.5,293.5C 238.737,292.732 237.737,292.232 236.5,292C 232.167,291.333 227.833,291.333 223.5,292C 221.983,293.685 220.316,295.185 218.5,296.5C 217.417,295.635 217.251,294.635 218,293.5C 219.167,292.333 220.333,291.167 221.5,290C 229.783,287.738 237.783,288.572 245.5,292.5C 244.311,293.429 242.978,293.762 241.5,293.5 Z"/></g>
<g><path style="opacity:1" fill="#a9cafd" d="M 173.5,291.5 C 181.551,292.785 188.051,296.785 193,303.5C 195.696,307.68 198.53,311.68 201.5,315.5C 202.169,318.849 203.836,321.516 206.5,323.5C 210.361,333.093 214.361,342.76 218.5,352.5C 214.737,353.615 211.07,354.615 207.5,355.5C 205.035,355.767 202.701,356.434 200.5,357.5C 191.623,359.014 182.957,361.347 174.5,364.5C 170.151,352.819 164.485,341.819 157.5,331.5C 156.928,329.745 156.094,328.078 155,326.5C 154.785,323.144 154.785,319.811 155,316.5C 154.044,315.106 152.711,314.439 151,314.5C 149.175,314.943 147.342,315.277 145.5,315.5C 143.637,313.295 141.303,311.961 138.5,311.5C 149.078,307.101 160.078,303.767 171.5,301.5C 169.875,297.709 170.541,294.376 173.5,291.5 Z"/></g>
<g><path style="opacity:0.065" fill="#dcdcdc" d="M 455.5,336.5 C 456.185,334.586 456.685,332.586 457,330.5C 457.333,294.167 457.667,257.833 458,221.5C 459.152,228.673 459.652,236.006 459.5,243.5C 458.864,274.164 458.364,304.831 458,335.5C 457.329,336.252 456.496,336.586 455.5,336.5 Z"/></g>
<g><path style="opacity:1" fill="#4e95f6" d="M 173.5,291.5 C 170.541,294.376 169.875,297.709 171.5,301.5C 160.078,303.767 149.078,307.101 138.5,311.5C 135.923,313.79 132.923,314.956 129.5,315C 126.686,311.064 127.019,307.397 130.5,304C 143.953,296.681 158.286,292.514 173.5,291.5 Z"/></g>
<g><path style="opacity:0.573" fill="#0a2853" d="M 205.5,312.5 C 205.833,312.5 206.167,312.5 206.5,312.5C 207.089,316.267 207.089,319.933 206.5,323.5C 203.836,321.516 202.169,318.849 201.5,315.5C 203.03,314.789 204.363,313.789 205.5,312.5 Z"/></g>
<g><path style="opacity:1" fill="#0c54a7" d="M 323.5,327.5 C 310.926,325.968 300.26,329.634 291.5,338.5C 292.242,336.574 293.242,334.741 294.5,333C 297.569,330.706 300.903,328.873 304.5,327.5C 310.128,326.505 315.794,326.171 321.5,326.5C 321.188,314.13 320.688,301.796 320,289.5C 322.428,302.011 323.595,314.678 323.5,327.5 Z"/></g>
<g><path style="opacity:1" fill="#1c2e36" d="M 157.5,331.5 C 153.276,334.431 149.443,334.098 146,330.5C 145.641,325.298 145.474,320.298 145.5,315.5C 147.342,315.277 149.175,314.943 151,314.5C 152.711,314.439 154.044,315.106 155,316.5C 154.785,319.811 154.785,323.144 155,326.5C 156.094,328.078 156.928,329.745 157.5,331.5 Z"/></g>
<g><path style="opacity:1" fill="#1a2d36" d="M 323.5,327.5 C 327.356,327.842 330.856,329.176 334,331.5C 334.902,331.257 335.735,330.923 336.5,330.5C 344.847,339.56 346.681,349.893 342,361.5C 334.473,371.823 324.639,377.823 312.5,379.5C 311.387,378.054 311.22,376.387 312,374.5C 314.086,366.91 316.586,359.41 319.5,352C 318.153,347.83 315.486,346.663 311.5,348.5C 307.952,357.814 304.619,367.147 301.5,376.5C 296.318,374.76 291.984,372.427 288.5,369.5C 288.54,366.575 287.707,363.909 286,361.5C 283.98,352.711 285.813,345.045 291.5,338.5C 300.26,329.634 310.926,325.968 323.5,327.5 Z"/></g>
<g><path style="opacity:0.012" fill="#a9aaa9" d="M 455.5,336.5 C 454.833,337.167 454.833,337.167 455.5,336.5 Z"/></g>
<g><path style="opacity:1" fill="#1a2e3d" d="M 207.5,355.5 C 209.574,357.762 211.574,360.262 213.5,363C 222.726,368.269 232.726,371.102 243.5,371.5C 236.707,375.011 229.374,376.344 221.5,375.5C 221.082,374.778 220.416,374.278 219.5,374C 216.854,373.503 214.187,373.336 211.5,373.5C 209.633,371.091 207.466,368.758 205,366.5C 202.959,363.752 201.459,360.752 200.5,357.5C 202.701,356.434 205.035,355.767 207.5,355.5 Z"/></g>
<g><path style="opacity:1" fill="#137bee" d="M 211.5,373.5 C 214.187,373.336 216.854,373.503 219.5,374C 220.416,374.278 221.082,374.778 221.5,375.5C 220.588,376.738 220.421,378.072 221,379.5C 227.475,387.46 233.308,395.793 238.5,404.5C 234.167,405.833 229.833,405.833 225.5,404.5C 221.583,396.349 216.416,389.015 210,382.5C 209.404,379.314 209.904,376.314 211.5,373.5 Z"/></g>
<g><path style="opacity:1" fill="#0f7af2" d="M 312.5,379.5 C 319.148,387.446 324.815,396.113 329.5,405.5C 324.847,406.001 320.514,405.334 316.5,403.5C 312.434,396.404 307.6,389.738 302,383.5C 300.193,381.26 300.026,378.927 301.5,376.5C 304.619,367.147 307.952,357.814 311.5,348.5C 315.486,346.663 318.153,347.83 319.5,352C 316.586,359.41 314.086,366.91 312,374.5C 311.22,376.387 311.387,378.054 312.5,379.5 Z"/></g>
<g><path style="opacity:0.99" fill="#f3f3f3" d="M 309.5,405.5 C 310.684,406.688 310.684,407.855 309.5,409C 305.993,411.254 302.327,413.254 298.5,415C 309.495,415.5 320.495,415.667 331.5,415.5C 331.5,412.167 331.5,408.833 331.5,405.5C 363.183,405.567 394.849,407.067 426.5,410C 431.195,410.872 435.861,411.872 440.5,413C 442.18,413.347 443.18,414.347 443.5,416C 442.318,417.735 440.651,418.735 438.5,419C 432.5,420 426.5,421 420.5,422C 309.527,428.96 198.527,429.294 87.5,423C 77.0816,421.875 66.7483,420.208 56.5,418C 55.1667,416.667 55.1667,415.333 56.5,414C 64.263,411.318 72.263,409.651 80.5,409C 127.441,405.638 174.441,404.138 221.5,404.5C 221.67,405.822 221.337,406.989 220.5,408C 216.007,410.079 211.674,412.412 207.5,415C 218.495,415.5 229.495,415.667 240.5,415.5C 240.5,411.833 240.5,408.167 240.5,404.5C 263.517,403.199 286.517,403.532 309.5,405.5 Z"/></g>
<g><path style="opacity:1" fill="#1e3038" d="M 221.5,404.5 C 222.833,404.5 224.167,404.5 225.5,404.5C 229.833,405.833 234.167,405.833 238.5,404.5C 239.167,404.5 239.833,404.5 240.5,404.5C 240.5,408.167 240.5,411.833 240.5,415.5C 229.495,415.667 218.495,415.5 207.5,415C 211.674,412.412 216.007,410.079 220.5,408C 221.337,406.989 221.67,405.822 221.5,404.5 Z"/></g>
<g><path style="opacity:1" fill="#1e3037" d="M 316.5,403.5 C 320.514,405.334 324.847,406.001 329.5,405.5C 330.167,405.5 330.833,405.5 331.5,405.5C 331.5,408.833 331.5,412.167 331.5,415.5C 320.495,415.667 309.495,415.5 298.5,415C 302.327,413.254 305.993,411.254 309.5,409C 310.684,407.855 310.684,406.688 309.5,405.5C 312.067,405.279 314.401,404.612 316.5,403.5 Z"/></g>
</svg>
